<?xml version="1.0" encoding="utf-8"?>
<!-- Generator: Adobe Illustrator 16.0.0, SVG Export Plug-In . SVG Version: 6.00 Build 0)  -->
<!DOCTYPE svg PUBLIC "-//W3C//DTD SVG 1.1//EN" "http://www.w3.org/Graphics/SVG/1.1/DTD/svg11.dtd">
<svg version="1.1" id="Layer_1" xmlns="http://www.w3.org/2000/svg" xmlns:xlink="http://www.w3.org/1999/xlink" x="0px" y="0px"
	 width="128.042px" height="114.043px" viewBox="0 0 128.042 114.043" enable-background="new 0 0 128.042 114.043"
	 xml:space="preserve">
<g>
	<path fill-rule="evenodd" clip-rule="evenodd" fill="#e45028" d="M51.993,114.043c-1.666,0-3.333,0-4.999,0
		C31.33,96.046,15.665,78.048,0,60.05c0-1.666,0-3.333,0-4.999c5.408-5.388,10.779-10.815,16.238-16.152
		c4.448-4.35,7.695-4.26,11.768,0.401c6.347,7.264,12.654,14.565,18.827,21.977c1.9,2.282,2.987,2.783,5.171,0.133
		c16.909-20.522,33.97-40.917,50.983-61.352c1.666,0,3.333,0,4.999,0c7.063,6.269,13.781,12.883,19.998,19.998
		c0,1.666,0,3.333,0,4.999c-9.925,11.595-19.861,23.18-29.771,34.789C82.797,77.9,67.399,95.976,51.993,114.043z"/>
	<path fill-rule="evenodd" clip-rule="evenodd" fill="#FDFDFD" d="M127.984,20.055c-6.217-7.115-12.936-13.729-19.998-19.998
		c5.999,0,12,0.088,17.996-0.055c1.74-0.042,2.098,0.315,2.057,2.056C127.896,8.055,127.984,14.056,127.984,20.055z"/>
</g>
</svg>
